<?xml version="1.0" encoding="utf-8"?>
<!-- Svg Vector Icons : http://www.onlinewebfonts.com/icon -->
<!DOCTYPE svg PUBLIC "-//W3C//DTD SVG 1.1//EN" "http://www.w3.org/Graphics/SVG/1.1/DTD/svg11.dtd">
<svg version="1.1" xmlns="http://www.w3.org/2000/svg" xmlns:xlink="http://www.w3.org/1999/xlink" x="0px" y="0px" viewBox="0 0 1000 1000" enable-background="new 0 0 1000 1000" xml:space="preserve">
<metadata> Svg Vector Icons : http://www.onlinewebfonts.com/icon </metadata>
<g><path d="M962.8,923.4L962.8,923.4L745.2,705.8l0.1-0.1L538.6,499l33.5-33.5l0,0l211.9-211.8v0l27.2-27.2l0-0.1L949.5,88l38.6-38.6l-38.6-38.7l-27.2,27.2l0,0L670.6,289.6l0,0.1L500,460.3l-20.8-20.8h0l-59-59l-90.9-90.9l0-0.1L77.7,37.9l0,0L50.5,10.7L11.9,49.4l27.2,27.2l0,0L189,226.4l0,0.1l27.2,27.2l0,0l211.9,211.8l0,0l27.2,27.2l0,0l6.3,6.3L254.6,705.7l0.1,0.1L37.2,923.4l0,0L10,950.6l38.6,38.7l251.7-251.7l0,0l27.2-27.2l-0.1-0.1l40.7-40.7L500,537.6l172.7,172.7l-0.1,0.1l27.2,27.2l0,0l251.7,251.7l38.6-38.7L962.8,923.4z"/></g>
</svg>